<svg width="388" height="74" fill="none" xmlns="http://www.w3.org/2000/svg"><path opacity=".05" d="M24.3 71l-.355.935.007.003.008.003.34-.941zm-12.4-7.6l-.686.728.007.006.679-.734zM3.8 51.8l-.918.397.918-.397zm0-29.6l-.918-.397.918.397zM12 10.6l-.679-.734.679.734zm12.5-7.5l.34.94.007-.002L24.5 3.1zm34.5.8l-.397.918.004.002L59 3.9zm13.5 10l.661.75.722-.636-.608-.746-.775.632zM57.4 27.2l-.755.656.66.76.756-.666-.661-.75zm-7.2-5.7l-.466.885.014.007.014.007.438-.899zm-15.6-.8l-.351-.936-.01.003.361.933zm-5.3 3.5l.723.691-.723-.691zm-3.4 5.5l.936.351-.936-.351zm0 14.5l-.94.342.004.01.936-.352zm3.4 5.5l.723-.691-.723.691zm5.2 3.6l-.398.918.019.007.018.008.361-.933zm14.7-.1l.324.946.01-.004.012-.004-.346-.938zm8.1-4.7l.775-.632-.613-.753-.77.592.608.793zm13.2 16.2l.558.83.91-.612-.693-.85-.775.632zm-14.6 6.6l.27.963-.27-.963zM50 61.7h-1v.864l.855.126.145-.99zm0-26.6v-1h-1v1h1zm20.5 0h1v-1h-1v1zm0 29.6l-.145.99 1.145.167V64.7h-1zM40 72.6c-5.564 0-10.68-.85-15.36-2.54l-.68 1.88C28.88 73.718 34.23 74.6 40 74.6v-2zm-15.345-2.535c-4.62-1.757-8.642-4.224-12.076-7.4l-1.358 1.47c3.632 3.357 7.877 5.957 12.724 7.8l.71-1.87zm-12.07-7.393c-3.365-3.171-5.987-6.925-7.867-11.27l-1.836.795c1.986 4.589 4.764 8.569 8.332 11.93l1.372-1.455zm-7.867-11.27C2.844 47.076 1.9 42.279 1.9 37h-2c0 5.522.989 10.592 2.982 15.197l1.836-.794zM1.9 37c0-5.278.944-10.075 2.818-14.403l-1.836-.794C.89 26.408-.1 31.478-.1 37h2zm2.818-14.403c1.878-4.34 4.53-8.092 7.96-11.263l-1.357-1.468c-3.637 3.362-6.45 7.344-8.439 11.937l1.836.794zm7.96-11.263c3.43-3.17 7.48-5.603 12.162-7.293l-.68-1.882c-4.918 1.776-9.201 4.344-12.839 7.707l1.358 1.468zm12.169-7.296C29.59 2.284 34.804 1.4 40.5 1.4v-2c-5.904 0-11.357.916-16.347 2.762l.694 1.876zM40.5 1.4c6.82 0 12.849 1.148 18.103 3.418l.794-1.836C53.85.586 47.546-.6 40.5-.6v2zm18.107 3.42c5.328 2.274 9.693 5.512 13.118 9.712l1.55-1.264C69.633 8.801 64.999 5.373 59.393 2.98l-.786 1.84zm13.232 8.33l-15.1 13.3 1.322 1.5 15.1-13.3-1.322-1.5zM58.155 26.544c-2.274-2.619-4.778-4.609-7.517-5.943l-.876 1.798c2.461 1.199 4.757 3.009 6.883 5.457l1.51-1.312zm-7.49-5.929C47.976 19.2 44.98 18.5 41.7 18.5v2c2.987 0 5.658.634 8.034 1.885l.932-1.77zM41.7 18.5c-2.703 0-5.19.416-7.451 1.264l.702 1.872c2.007-.752 4.252-1.136 6.749-1.136v-2zm-7.461 1.267c-2.197.851-4.09 2.098-5.662 3.742l1.446 1.382c1.36-1.422 3.002-2.509 4.938-3.258l-.722-1.866zm-5.662 3.742c-1.567 1.638-2.77 3.59-3.613 5.84l1.872.702c.756-2.016 1.82-3.731 3.187-5.16l-1.446-1.382zm-3.613 5.84C24.114 31.614 23.7 34.17 23.7 37h2c0-2.637.386-4.948 1.136-6.949l-1.872-.702zM23.7 37c0 2.704.416 5.22 1.26 7.542l1.88-.684C26.084 41.78 25.7 39.496 25.7 37h-2zm1.264 7.551c.844 2.25 2.047 4.202 3.613 5.84l1.446-1.382c-1.367-1.429-2.43-3.144-3.187-5.16l-1.872.702zm3.613 5.84a16.814 16.814 0 005.525 3.827l.796-1.836a14.814 14.814 0 01-4.875-3.373l-1.446 1.382zm5.562 3.842c2.197.85 4.622 1.267 7.261 1.267v-2c-2.427 0-4.603-.383-6.539-1.133l-.722 1.866zM41.4 55.5c2.777 0 5.487-.452 8.124-1.354l-.648-1.892A22.936 22.936 0 0141.4 53.5v2zm8.146-1.362c2.653-.977 5.441-2.603 8.363-4.845l-1.218-1.586c-2.812 2.158-5.424 3.666-7.837 4.555l.692 1.876zm6.979-5.006l13.2 16.2 1.55-1.264-13.2-16.2-1.55 1.264zM69.942 63.87c-4.17 2.801-8.937 4.96-14.312 6.467l.54 1.926c5.558-1.56 10.524-3.801 14.888-6.733l-1.116-1.66zM55.63 70.337C50.242 71.848 45.033 72.6 40 72.6v2c5.234 0 10.625-.782 16.17-2.337l-.54-1.926zM51 61.7V35.1h-2v26.6h2zm-1-25.6h20.5v-2H50v2zm19.5-1v29.6h2V35.1h-2zm1.145 28.61l-20.5-3-.29 1.98 20.5 3 .29-1.98zm10.987 5.69l-.698.716.01.01.688-.726zm0-18.7l-.677-.736.677.736zm18.8 0l.678-.736-.678.736zm0 18.7l.688.726.01-.01-.698-.716zm-9.4 2.6c-3.497 0-6.378-1.115-8.712-3.326l-1.376 1.452C83.677 72.715 87.062 74 91.032 74v-2zm-8.702-3.317c-2.325-2.263-3.498-5.13-3.498-8.683h-2c0 4.047 1.36 7.447 4.102 10.117l1.396-1.434zM78.832 60c0-3.625 1.176-6.445 3.478-8.565l-1.355-1.47C78.189 52.51 76.832 55.892 76.832 60h2zm3.478-8.565c2.332-2.148 5.217-3.235 8.722-3.235v-2c-3.961 0-7.343 1.246-10.077 3.764l1.355 1.471zm8.722-3.235c3.505 0 6.39 1.087 8.723 3.235l1.355-1.47c-2.735-2.519-6.117-3.765-10.078-3.765v2zm8.723 3.235c2.301 2.12 3.477 4.94 3.477 8.565h2c0-4.108-1.357-7.489-4.122-10.035l-1.355 1.47zM103.232 60c0 3.553-1.173 6.42-3.498 8.683l1.396 1.433c2.742-2.67 4.102-6.069 4.102-10.116h-2zm-3.488 8.674C97.41 70.885 94.53 72 91.032 72v2c3.97 0 7.355-1.285 10.088-3.874l-1.376-1.452zM133.003 57l-.999.05.122 2.42 1.62-1.801-.743-.669zm-1.3-25.9l-.741-.672-.278.307.02.415.999-.05zm26.4-29.1V1h-.443l-.298.328.741.672zm25.7 0l.74.672L186.062 1h-2.259v1zm-29.6 32.6l.715.7.013-.014.012-.014-.74-.672zm-13.1 13.4l-.715-.7-.014.016-.014.015.743.669zm-29.2 24h-1v1h1v-1zm0-70V1h-1v1h1zm23.2 0h1V1h-1v1zm0 70v1h1v-1h-1zm22.8 0l-.797.604.3.396h.497v-1zm-20.6-27.2l-.727-.687-.581.616.511.675.797-.604zm15.3-16.2l.8-.6-.713-.949-.814.862.727.687zm32.6 43.4v1h2.002l-1.202-1.6-.8.6zm-51.201-15.05l-1.3-25.9-1.998.1 1.3 25.9 1.998-.1zm-1.558-25.178l26.4-29.1-1.482-1.344-26.4 29.1 1.482 1.344zM158.103 3h25.7V1h-25.7v2zm24.96-1.672l-29.6 32.6 1.48 1.344 29.6-32.6-1.48-1.344zM153.488 33.9l-13.1 13.4 1.43 1.398 13.1-13.4-1.43-1.398zM140.36 47.33l-8.1 9 1.486 1.338 8.1-9-1.486-1.338zM112.903 72V2h-2v70h2zm-1-69h23.2V1h-23.2v2zm22.2-1v70h2V2h-2zm1 69h-23.2v2h23.2v-2zm23.597.396l-20.6-27.2-1.594 1.208 20.6 27.2 1.594-1.208zm-20.67-25.91l15.3-16.2-1.454-1.373-15.3 16.2 1.454 1.374zm13.774-16.285l32.6 43.4 1.599-1.202-32.6-43.4-1.599 1.202zM185.203 71h-27.3v2h27.3v-2zm3.265-1.6l-.698.716.01.01.688-.726zm0-18.7l-.678-.736.678.736zm18.8 0l.677-.736-.677.736zm0 18.7l.688.726.01-.01-.698-.716zm-9.4 2.6c-3.497 0-6.378-1.115-8.712-3.326l-1.376 1.452c2.733 2.589 6.118 3.874 10.088 3.874v-2zm-8.702-3.317c-2.325-2.263-3.498-5.13-3.498-8.683h-2c0 4.047 1.36 7.447 4.102 10.117l1.396-1.434zM185.668 60c0-3.625 1.176-6.445 3.477-8.565l-1.355-1.47c-2.765 2.546-4.122 5.927-4.122 10.035h2zm3.477-8.565c2.333-2.148 5.218-3.235 8.723-3.235v-2c-3.961 0-7.343 1.246-10.078 3.764l1.355 1.471zm8.723-3.235c3.505 0 6.39 1.087 8.722 3.235l1.355-1.47c-2.734-2.519-6.116-3.765-10.077-3.765v2zm8.722 3.235c2.302 2.12 3.478 4.94 3.478 8.565h2c0-4.108-1.357-7.489-4.123-10.035l-1.355 1.47zM210.068 60c0 3.553-1.173 6.42-3.498 8.683l1.396 1.433c2.742-2.67 4.102-6.069 4.102-10.116h-2zm-3.488 8.674c-2.334 2.211-5.215 3.326-8.712 3.326v2c3.97 0 7.355-1.285 10.088-3.874l-1.376-1.452zM218.739 72h-1v1h1v-1zm0-70V1h-1v1h1zm50.6 3.2l-.411.912.005.002.406-.914zm11.1 9.2l-.838.545.004.006.834-.551zm0 28l-.834-.551.834.551zm-11.1 9.2l.411.912.006-.003-.417-.909zm-37.5 3.2l-.693-.72-1.789 1.72h2.482v-1zm10.5-10.1h1v-2.35l-1.693 1.63.693.72zm0 27.3v1h1v-1h-1zm0-24.7l-.714.7 1.714 1.747V47.3h-1zm-10.5-10.7v-1h-2.382l1.668 1.7.714-.7zm26.3-2.2l-.676-.737-.007.007-.008.007.691.723zm0-12l-.691.723.008.007.007.007.676-.737zm-26.3-2.2l-.714-.7-1.668 1.7h2.382v-1zm10.5-10.7h1V7.053L241.625 8.8l.714.7zm-22.6 62.5V2h-2v70h2zm-1-69h33.7V1h-33.7v2zm33.7 0c6.427 0 11.914 1.05 16.489 3.112l.822-1.824C264.859 2.084 259.079 1 252.439 1v2zm16.494 3.114c4.642 2.063 8.184 5.01 10.668 8.831l1.677-1.09c-2.716-4.178-6.575-7.365-11.533-9.569l-.812 1.828zm10.672 8.837c2.477 3.747 3.734 8.216 3.734 13.449h2c0-5.567-1.342-10.432-4.066-14.551l-1.668 1.102zm3.734 13.449c0 5.233-1.257 9.702-3.734 13.449l1.668 1.102c2.724-4.12 4.066-8.984 4.066-14.551h-2zm-3.734 13.449c-2.485 3.759-6.032 6.71-10.683 8.842l.834 1.818c4.949-2.268 8.802-5.45 11.517-9.558l-1.668-1.102zm-10.677 8.84c-4.575 2.061-10.062 3.111-16.489 3.111v2c6.64 0 12.42-1.084 17.311-3.288l-.822-1.824zM252.439 53.8h-20.6v2h20.6v-2zm-19.907 1.72l10.5-10.1-1.386-1.44-10.5 10.1 1.386 1.44zm8.807-10.82V72h2V44.7h-2zm1 26.3h-23.6v2h23.6v-2zm.714-24.4l-10.5-10.7-1.428 1.4 10.5 10.7 1.428-1.4zm-11.214-9h19.1v-2h-19.1v2zm19.1 0c3.389 0 6.093-.757 7.891-2.477l-1.382-1.446c-1.269 1.214-3.365 1.923-6.509 1.923v2zm7.876-2.463c1.841-1.688 2.724-3.975 2.724-6.737h-2c0 2.304-.717 4.018-2.076 5.263l1.352 1.474zm2.724-6.737c0-2.762-.883-5.049-2.724-6.737l-1.352 1.474c1.359 1.245 2.076 2.959 2.076 5.263h2zm-2.709-6.723c-1.798-1.72-4.502-2.477-7.891-2.477v2c3.144 0 5.24.71 6.509 1.923l1.382-1.446zm-7.891-2.477h-19.1v2h19.1v-2zm-18.386 1.7l10.5-10.7-1.428-1.4-10.5 10.7 1.428 1.4zm8.786-11.4v37.8h2V9.5h-2zm49.277 59.9l-.697.716.01.01.687-.726zm0-18.7l-.677-.736.677.736zm18.8 0l.678-.736-.678.736zm0 18.7l.688.726.01-.01-.698-.716zm-9.4 2.6c-3.497 0-6.378-1.115-8.712-3.326l-1.375 1.452c2.733 2.589 6.118 3.874 10.087 3.874v-2zm-8.702-3.317c-2.325-2.263-3.498-5.13-3.498-8.683h-2c0 4.047 1.361 7.447 4.103 10.117l1.395-1.434zM287.816 60c0-3.625 1.176-6.445 3.478-8.565l-1.355-1.47c-2.765 2.546-4.123 5.927-4.123 10.035h2zm3.478-8.565c2.332-2.148 5.217-3.235 8.722-3.235v-2c-3.961 0-7.343 1.246-10.077 3.764l1.355 1.471zm8.722-3.235c3.506 0 6.39 1.087 8.723 3.235l1.355-1.47c-2.734-2.519-6.116-3.765-10.078-3.765v2zm8.723 3.235c2.301 2.12 3.477 4.94 3.477 8.565h2c0-4.108-1.357-7.489-4.122-10.035l-1.355 1.47zM312.216 60c0 3.553-1.173 6.42-3.497 8.683l1.395 1.433c2.742-2.67 4.102-6.069 4.102-10.116h-2zm-3.487 8.674c-2.334 2.211-5.216 3.326-8.713 3.326v2c3.97 0 7.355-1.285 10.088-3.874l-1.375-1.452zM339.534 71l-.355.935.008.003.008.003.339-.941zm-12.4-7.6l-.685.728.007.006.678-.734zm-8.1-11.6l-.917.397.917-.397zm0-29.6l-.917-.397.917.397zm8.2-11.6l-.678-.734.678.734zm12.5-7.5l.34.94.007-.002-.347-.938zm34.5.8l-.396.918.004.002.392-.92zm13.5 10l.661.75.723-.636-.609-.746-.775.632zm-15.1 13.3l-.755.656.661.76.755-.666-.661-.75zm-7.2-5.7l-.465.885.013.007.014.007.438-.899zm-15.6-.8l-.351-.936-.01.003.361.933zm-5.3 3.5l.723.691-.723-.691zm-3.4 5.5l.937.351-.937-.351zm0 14.5l-.939.342.003.01.936-.352zm3.4 5.5l.723-.691-.723.691zm5.2 3.6l-.397.918.018.007.018.008.361-.933zm14.7-.1l.324.946.011-.004.011-.004-.346-.938zm8.1-4.7l.776-.632-.614-.753-.77.592.608.793zm13.2 16.2l.558.83.91-.612-.692-.85-.776.632zm-14.6 6.6l.27.963-.27-.963zm-5.9-9.6h-1v.864l.856.126.144-.99zm0-26.6v-1h-1v1h1zm20.5 0h1v-1h-1v1zm0 29.6l-.144.99 1.144.167V64.7h-1zm-30.5 7.9c-5.563 0-10.68-.85-15.36-2.54l-.679 1.88c4.92 1.777 10.27 2.66 16.039 2.66v-2zm-15.344-2.535c-4.62-1.757-8.642-4.224-12.077-7.4l-1.357 1.47c3.632 3.357 7.876 5.957 12.723 7.8l.711-1.87zm-12.07-7.393c-3.365-3.171-5.987-6.925-7.868-11.27l-1.835.795c1.986 4.589 4.764 8.569 8.332 11.93l1.371-1.455zm-7.868-11.27c-1.873-4.327-2.818-9.124-2.818-14.402h-2c0 5.522.989 10.592 2.983 15.197l1.835-.794zM317.134 37c0-5.278.945-10.075 2.818-14.403l-1.835-.794c-1.994 4.605-2.983 9.675-2.983 15.197h2zm2.818-14.403c1.879-4.34 4.531-8.092 7.961-11.263l-1.357-1.468c-3.637 3.362-6.451 7.344-8.439 11.937l1.835.794zm7.961-11.263c3.43-3.17 7.479-5.603 12.161-7.293l-.679-1.882c-4.918 1.776-9.202 4.344-12.839 7.707l1.357 1.468zm12.168-7.296c4.744-1.754 9.958-2.638 15.653-2.638v-2c-5.904 0-11.357.916-16.347 2.762l.694 1.876zM355.734 1.4c6.821 0 12.849 1.148 18.104 3.418l.793-1.836C369.085.586 362.78-.6 355.734-.6v2zm18.108 3.42c5.327 2.274 9.693 5.512 13.117 9.712l1.55-1.264c-3.642-4.467-8.276-7.895-13.882-10.288l-.785 1.84zm13.231 8.33l-15.1 13.3 1.322 1.5 15.1-13.3-1.322-1.5zm-13.684 13.394c-2.274-2.619-4.778-4.609-7.517-5.943l-.876 1.798c2.462 1.199 4.758 3.009 6.883 5.457l1.51-1.312zm-7.489-5.929c-2.69-1.416-5.686-2.115-8.966-2.115v2c2.987 0 5.658.634 8.035 1.885l.931-1.77zm-8.966-2.115c-2.703 0-5.19.416-7.451 1.264l.703 1.872c2.006-.752 4.252-1.136 6.748-1.136v-2zm-7.461 1.267c-2.197.851-4.089 2.098-5.661 3.742l1.445 1.382c1.361-1.422 3.002-2.509 4.938-3.258l-.722-1.866zm-5.661 3.742c-1.567 1.638-2.77 3.59-3.614 5.84l1.873.702c.756-2.016 1.82-3.731 3.186-5.16l-1.445-1.382zm-3.614 5.84c-.85 2.265-1.264 4.821-1.264 7.651h2c0-2.637.386-4.948 1.137-6.949l-1.873-.702zM338.934 37c0 2.704.417 5.22 1.261 7.542l1.879-.684c-.756-2.079-1.14-4.362-1.14-6.858h-2zm1.264 7.551c.844 2.25 2.047 4.202 3.614 5.84l1.445-1.382c-1.366-1.429-2.43-3.144-3.186-5.16l-1.873.702zm3.614 5.84a16.81 16.81 0 005.525 3.827l.795-1.836a14.815 14.815 0 01-4.875-3.373l-1.445 1.382zm5.561 3.842c2.197.85 4.622 1.267 7.261 1.267v-2c-2.427 0-4.602-.383-6.539-1.133l-.722 1.866zm7.261 1.267a24.94 24.94 0 008.124-1.354l-.647-1.892a22.942 22.942 0 01-7.477 1.246v2zm8.146-1.362c2.654-.977 5.442-2.603 8.363-4.845l-1.217-1.586c-2.812 2.158-5.424 3.666-7.837 4.555l.691 1.876zm6.979-5.006l13.2 16.2 1.551-1.264-13.2-16.2-1.551 1.264zm13.418 14.738c-4.17 2.801-8.938 4.96-14.313 6.467l.54 1.926c5.559-1.56 10.524-3.801 14.888-6.733l-1.115-1.66zm-14.313 6.467c-5.388 1.511-10.597 2.263-15.63 2.263v2c5.234 0 10.625-.782 16.17-2.337l-.54-1.926zm-4.63-8.637V35.1h-2v26.6h2zm-1-25.6h20.5v-2h-20.5v2zm19.5-1v29.6h2V35.1h-2zm1.145 28.61l-20.5-3-.289 1.98 20.5 3 .289-1.98z" fill="#FEFEFF"/></svg>