<svg width="388" height="74" viewBox="0 0 388 74" fill="none" xmlns="http://www.w3.org/2000/svg">
<path opacity="0.05" d="M24.3 71L23.9446 71.9347L23.9524 71.9377L23.9604 71.9406L24.3 71ZM11.9 63.4L11.2142 64.1278L11.2211 64.1343L11.9 63.4ZM3.8 51.8L2.88228 52.1972L2.88228 52.1972L3.8 51.8ZM3.8 22.2L2.88228 21.8028L2.88228 21.8028L3.8 22.2ZM12 10.6L11.3211 9.86573L11.3211 9.86573L12 10.6ZM24.5 3.1L24.8397 4.04058L24.8469 4.0379L24.5 3.1ZM59 3.89999L58.6033 4.81797L58.6074 4.81972L59 3.89999ZM72.5 13.9L73.161 14.6504L73.8834 14.0141L73.275 13.2681L72.5 13.9ZM57.4 27.2L56.645 27.8557L57.3053 28.616L58.061 27.9504L57.4 27.2ZM50.2 21.5L49.7343 22.3849L49.748 22.3922L49.762 22.399L50.2 21.5ZM34.6 20.7L34.2489 19.7636L34.239 19.7674L34.6 20.7ZM29.3 24.2L30.0226 24.8912L30.0226 24.8912L29.3 24.2ZM25.9 29.7L26.8363 30.0511L26.8363 30.0511L25.9 29.7ZM25.9 44.2L24.9602 44.5418L24.9637 44.5511L25.9 44.2ZM29.3 49.7L30.0226 49.0088L30.0226 49.0088L29.3 49.7ZM34.5 53.3L34.1024 54.2176L34.1206 54.2254L34.139 54.2326L34.5 53.3ZM49.2 53.2L49.5237 54.1462L49.5347 54.1424L49.5457 54.1383L49.2 53.2ZM57.3 48.5L58.0752 47.8683L57.4617 47.1154L56.6912 47.7067L57.3 48.5ZM70.5 64.7L71.0577 65.53L71.9679 64.9185L71.2752 64.0683L70.5 64.7ZM55.9 71.3L56.1701 72.2628L56.1701 72.2628L55.9 71.3ZM50 61.7H49V62.5643L49.8552 62.6895L50 61.7ZM50 35.1V34.1H49V35.1H50ZM70.5 35.1H71.5V34.1H70.5V35.1ZM70.5 64.7L70.3552 65.6895L71.5 65.857V64.7H70.5ZM40 72.6C34.4364 72.6 29.3194 71.7493 24.6396 70.0594L23.9604 71.9406C28.8806 73.7173 34.2302 74.6 40 74.6V72.6ZM24.6554 70.0653C20.0354 68.3084 16.0133 65.841 12.5789 62.6657L11.2211 64.1343C14.8533 67.4923 19.0979 70.0916 23.9446 71.9347L24.6554 70.0653ZM12.5858 62.6722C9.22031 59.5009 6.59824 55.7474 4.71772 51.4028L2.88228 52.1972C4.86843 56.7859 7.64636 60.7658 11.2142 64.1278L12.5858 62.6722ZM4.71772 51.4028C2.84433 47.0746 1.9 42.2784 1.9 37H-0.0999999C-0.0999999 42.5216 0.889005 47.5921 2.88228 52.1972L4.71772 51.4028ZM1.9 37C1.9 31.7216 2.84433 26.9254 4.71772 22.5972L2.88228 21.8028C0.889005 26.4079 -0.0999999 31.4784 -0.0999999 37H1.9ZM4.71772 22.5972C6.59641 18.2568 9.24894 14.5053 12.6789 11.3343L11.3211 9.86573C7.6844 13.228 4.87025 17.2099 2.88228 21.8028L4.71772 22.5972ZM12.6789 11.3343C16.1082 8.16376 20.1576 5.73128 24.8396 4.04055L24.1604 2.15944C19.2424 3.93538 14.9585 6.5029 11.3211 9.86573L12.6789 11.3343ZM24.8469 4.0379C29.5902 2.28352 34.8045 1.4 40.5 1.4V-0.600002C34.5955 -0.600002 29.1431 0.316476 24.1531 2.1621L24.8469 4.0379ZM40.5 1.4C47.3209 1.4 53.3489 2.54753 58.6033 4.81796L59.3967 2.98203C53.8511 0.585799 47.5457 -0.600002 40.5 -0.600002V1.4ZM58.6074 4.81972C63.9349 7.09362 68.3004 10.332 71.725 14.5319L73.275 13.2681C69.6329 8.80136 64.9985 5.37304 59.3926 2.98027L58.6074 4.81972ZM71.839 13.1496L56.739 26.4496L58.061 27.9504L73.161 14.6504L71.839 13.1496ZM58.155 26.5443C55.8808 23.9255 53.3768 21.9353 50.638 20.601L49.762 22.399C52.2232 23.598 54.5192 25.4079 56.645 27.8557L58.155 26.5443ZM50.6657 20.6151C47.9756 19.1992 44.98 18.5 41.7 18.5V20.5C44.6867 20.5 47.3578 21.1341 49.7343 22.3849L50.6657 20.6151ZM41.7 18.5C38.9968 18.5 36.5092 18.9161 34.2489 19.7637L34.9511 21.6363C36.9575 20.8839 39.2032 20.5 41.7 20.5V18.5ZM34.239 19.7674C32.0418 20.618 30.1499 21.8647 28.5774 23.5088L30.0226 24.8912C31.3834 23.4686 33.0249 22.382 34.961 21.6326L34.239 19.7674ZM28.5774 23.5088C27.0105 25.1469 25.8076 27.0984 24.9637 29.3489L26.8363 30.0511C27.5924 28.035 28.6562 26.3198 30.0226 24.8912L28.5774 23.5088ZM24.9637 29.3489C24.1141 31.6144 23.7 34.1701 23.7 37H25.7C25.7 34.3633 26.0859 32.0522 26.8363 30.0511L24.9637 29.3489ZM23.7 37C23.7 39.7037 24.1162 42.2208 24.9602 44.5417L26.8398 43.8583C26.0838 41.7792 25.7 39.4963 25.7 37H23.7ZM24.9637 44.5511C25.8076 46.8016 27.0105 48.7531 28.5774 50.3912L30.0226 49.0088C28.6562 47.5802 27.5924 45.865 26.8363 43.8489L24.9637 44.5511ZM28.5774 50.3912C30.1387 52.0236 31.9835 53.2993 34.1024 54.2176L34.8976 52.3824C33.0165 51.5673 31.3946 50.4431 30.0226 49.0088L28.5774 50.3912ZM34.139 54.2326C36.3361 55.083 38.7607 55.5 41.4 55.5V53.5C38.9726 53.5 36.7973 53.117 34.861 52.3674L34.139 54.2326ZM41.4 55.5C44.1772 55.5 46.8866 55.0483 49.5237 54.1462L48.8763 52.2538C46.4467 53.085 43.9561 53.5 41.4 53.5V55.5ZM49.5457 54.1383C52.1994 53.1607 54.9875 51.5353 57.9088 49.2933L56.6912 47.7067C53.8792 49.8647 51.2673 51.3727 48.8543 52.2617L49.5457 54.1383ZM56.5248 49.1317L69.7248 65.3317L71.2752 64.0683L58.0752 47.8683L56.5248 49.1317ZM69.9423 63.8699C65.7726 66.6715 61.0049 68.8295 55.6299 70.3372L56.1701 72.2628C61.7284 70.7038 66.6941 68.4618 71.0577 65.53L69.9423 63.8699ZM55.6299 70.3372C50.242 71.8484 45.033 72.6 40 72.6V74.6C45.2337 74.6 50.6247 73.8182 56.1701 72.2628L55.6299 70.3372ZM51 61.7V35.1H49V61.7H51ZM50 36.1H70.5V34.1H50V36.1ZM69.5 35.1V64.7H71.5V35.1H69.5ZM70.6448 63.7105L50.1448 60.7105L49.8552 62.6895L70.3552 65.6895L70.6448 63.7105ZM81.632 69.4L80.9343 70.1165L80.9443 70.126L81.632 69.4ZM81.632 50.7L80.9546 49.9645L80.9546 49.9645L81.632 50.7ZM100.432 50.7L101.11 49.9645L101.11 49.9645L100.432 50.7ZM100.432 69.4L101.12 70.126L101.13 70.1165L100.432 69.4ZM91.032 72C87.5349 72 84.6536 70.885 82.3198 68.674L80.9443 70.126C83.6771 72.715 87.0624 74 91.032 74V72ZM82.3296 68.6835C80.0051 66.4202 78.832 63.5525 78.832 60H76.832C76.832 64.0475 78.1923 67.4465 80.9344 70.1165L82.3296 68.6835ZM78.832 60C78.832 56.3749 80.0081 53.5553 82.3095 51.4355L80.9546 49.9645C78.1893 52.5114 76.832 55.8918 76.832 60H78.832ZM82.3095 51.4355C84.642 49.2872 87.5267 48.2 91.032 48.2V46.2C87.0706 46.2 83.6887 47.4461 80.9546 49.9645L82.3095 51.4355ZM91.032 48.2C94.5373 48.2 97.4221 49.2872 99.7546 51.4355L101.11 49.9645C98.3753 47.4461 94.9934 46.2 91.032 46.2V48.2ZM99.7546 51.4355C102.056 53.5553 103.232 56.3749 103.232 60H105.232C105.232 55.8918 103.875 52.5114 101.11 49.9645L99.7546 51.4355ZM103.232 60C103.232 63.5525 102.059 66.4202 99.7344 68.6835L101.13 70.1165C103.872 67.4465 105.232 64.0475 105.232 60H103.232ZM99.7443 68.674C97.4105 70.885 94.5291 72 91.032 72V74C95.0016 74 98.3869 72.715 101.12 70.126L99.7443 68.674ZM133.003 57L132.004 57.0501L132.126 59.4696L133.746 57.669L133.003 57ZM131.703 31.1L130.962 30.4281L130.684 30.7355L130.704 31.1501L131.703 31.1ZM158.103 2V0.999995H157.66L157.362 1.32808L158.103 2ZM183.803 2L184.543 2.67222L186.062 0.999995H183.803V2ZM154.203 34.6L154.918 35.2991L154.931 35.2859L154.943 35.2722L154.203 34.6ZM141.103 48L140.388 47.3009L140.374 47.3157L140.36 47.331L141.103 48ZM111.903 72H110.903V73H111.903V72ZM111.903 2V0.999995H110.903V2H111.903ZM135.103 2H136.103V0.999995H135.103V2ZM135.103 72V73H136.103V72H135.103ZM157.903 72L157.106 72.6037L157.406 73H157.903V72ZM137.303 44.8L136.576 44.1134L135.995 44.7289L136.506 45.4037L137.303 44.8ZM152.603 28.6L153.403 27.9994L152.69 27.0512L151.876 27.9134L152.603 28.6ZM185.203 72V73H187.205L186.003 71.3994L185.203 72ZM134.002 56.9499L132.702 31.0499L130.704 31.1501L132.004 57.0501L134.002 56.9499ZM132.444 31.7719L158.844 2.67191L157.362 1.32808L130.962 30.4281L132.444 31.7719ZM158.103 3H183.803V0.999995H158.103V3ZM183.063 1.32777L153.463 33.9278L154.943 35.2722L184.543 2.67222L183.063 1.32777ZM153.488 33.9009L140.388 47.3009L141.818 48.6991L154.918 35.2991L153.488 33.9009ZM140.36 47.331L132.26 56.331L133.746 57.669L141.846 48.669L140.36 47.331ZM112.903 72V2H110.903V72H112.903ZM111.903 3H135.103V0.999995H111.903V3ZM134.103 2V72H136.103V2H134.103ZM135.103 71H111.903V73H135.103V71ZM158.7 71.3963L138.1 44.1963L136.506 45.4037L157.106 72.6037L158.7 71.3963ZM138.03 45.4866L153.33 29.2866L151.876 27.9134L136.576 44.1134L138.03 45.4866ZM151.804 29.2006L184.404 72.6006L186.003 71.3994L153.403 27.9994L151.804 29.2006ZM185.203 71H157.903V73H185.203V71ZM188.468 69.4L187.77 70.1165L187.78 70.126L188.468 69.4ZM188.468 50.7L187.79 49.9645L187.79 49.9645L188.468 50.7ZM207.268 50.7L207.945 49.9645L207.945 49.9645L207.268 50.7ZM207.268 69.4L207.956 70.126L207.966 70.1165L207.268 69.4ZM197.868 72C194.371 72 191.49 70.885 189.156 68.674L187.78 70.126C190.513 72.715 193.898 74 197.868 74V72ZM189.166 68.6835C186.841 66.4202 185.668 63.5525 185.668 60H183.668C183.668 64.0475 185.028 67.4465 187.77 70.1165L189.166 68.6835ZM185.668 60C185.668 56.3749 186.844 53.5553 189.145 51.4355L187.79 49.9645C185.025 52.5114 183.668 55.8918 183.668 60H185.668ZM189.145 51.4355C191.478 49.2872 194.363 48.2 197.868 48.2V46.2C193.907 46.2 190.525 47.4461 187.79 49.9645L189.145 51.4355ZM197.868 48.2C201.373 48.2 204.258 49.2872 206.59 51.4355L207.945 49.9645C205.211 47.4461 201.829 46.2 197.868 46.2V48.2ZM206.59 51.4355C208.892 53.5553 210.068 56.3749 210.068 60H212.068C212.068 55.8918 210.711 52.5114 207.945 49.9645L206.59 51.4355ZM210.068 60C210.068 63.5525 208.895 66.4202 206.57 68.6835L207.966 70.1165C210.708 67.4465 212.068 64.0475 212.068 60H210.068ZM206.58 68.674C204.246 70.885 201.365 72 197.868 72V74C201.838 74 205.223 72.715 207.956 70.126L206.58 68.674ZM218.739 72H217.739V73H218.739V72ZM218.739 2V0.999995H217.739V2H218.739ZM269.339 5.2L268.928 6.11169L268.933 6.11381L269.339 5.2ZM280.439 14.4L279.601 14.945L279.605 14.9514L280.439 14.4ZM280.439 42.4L279.605 41.8486L279.605 41.8486L280.439 42.4ZM269.339 51.6L269.75 52.5117L269.756 52.5091L269.339 51.6ZM231.839 54.8L231.146 54.0793L229.357 55.8H231.839V54.8ZM242.339 44.7H243.339V42.3506L241.646 43.9793L242.339 44.7ZM242.339 72V73H243.339V72H242.339ZM242.339 47.3L241.625 48.0004L243.339 49.7468V47.3H242.339ZM231.839 36.6V35.6H229.457L231.125 37.3004L231.839 36.6ZM258.139 34.4L257.463 33.6628L257.456 33.67L257.448 33.6774L258.139 34.4ZM258.139 22.4L257.448 23.1226L257.456 23.13L257.463 23.1372L258.139 22.4ZM231.839 20.2L231.125 19.4996L229.457 21.2H231.839V20.2ZM242.339 9.5H243.339V7.05321L241.625 8.7996L242.339 9.5ZM219.739 72V2H217.739V72H219.739ZM218.739 3H252.439V0.999995H218.739V3ZM252.439 3C258.866 3 264.353 4.04955 268.928 6.11168L269.75 4.28831C264.859 2.08378 259.079 0.999995 252.439 0.999995V3ZM268.933 6.11381C273.575 8.17683 277.117 11.1234 279.601 14.945L281.278 13.855C278.562 9.67663 274.703 6.48983 269.745 4.28618L268.933 6.11381ZM279.605 14.9514C282.082 18.6983 283.339 23.1668 283.339 28.4H285.339C285.339 22.8332 283.997 17.9683 281.273 13.8486L279.605 14.9514ZM283.339 28.4C283.339 33.6332 282.082 38.1017 279.605 41.8486L281.273 42.9514C283.997 38.8317 285.339 33.9668 285.339 28.4H283.339ZM279.605 41.8486C277.12 45.6078 273.573 48.5592 268.922 50.6909L269.756 52.5091C274.705 50.2408 278.558 47.0588 281.273 42.9514L279.605 41.8486ZM268.928 50.6883C264.353 52.7504 258.866 53.8 252.439 53.8V55.8C259.079 55.8 264.859 54.7162 269.75 52.5117L268.928 50.6883ZM252.439 53.8H231.839V55.8H252.439V53.8ZM232.532 55.5207L243.032 45.4207L241.646 43.9793L231.146 54.0793L232.532 55.5207ZM241.339 44.7V72H243.339V44.7H241.339ZM242.339 71H218.739V73H242.339V71ZM243.053 46.5996L232.553 35.8996L231.125 37.3004L241.625 48.0004L243.053 46.5996ZM231.839 37.6H250.939V35.6H231.839V37.6ZM250.939 37.6C254.328 37.6 257.032 36.8427 258.83 35.1226L257.448 33.6774C256.179 34.8906 254.083 35.6 250.939 35.6V37.6ZM258.815 35.1372C260.656 33.449 261.539 31.1623 261.539 28.4H259.539C259.539 30.7043 258.822 32.4177 257.463 33.6628L258.815 35.1372ZM261.539 28.4C261.539 25.6377 260.656 23.351 258.815 21.6628L257.463 23.1372C258.822 24.3823 259.539 26.0957 259.539 28.4H261.539ZM258.83 21.6774C257.032 19.9573 254.328 19.2 250.939 19.2V21.2C254.083 21.2 256.179 21.9094 257.448 23.1226L258.83 21.6774ZM250.939 19.2H231.839V21.2H250.939V19.2ZM232.553 20.9004L243.053 10.2004L241.625 8.7996L231.125 19.4996L232.553 20.9004ZM241.339 9.5V47.3H243.339V9.5H241.339ZM290.616 69.4L289.919 70.1165L289.929 70.126L290.616 69.4ZM290.616 50.7L289.939 49.9645L289.939 49.9645L290.616 50.7ZM309.416 50.7L310.094 49.9645L310.094 49.9645L309.416 50.7ZM309.416 69.4L310.104 70.126L310.114 70.1165L309.416 69.4ZM300.016 72C296.519 72 293.638 70.885 291.304 68.674L289.929 70.126C292.662 72.715 296.047 74 300.016 74V72ZM291.314 68.6835C288.989 66.4202 287.816 63.5525 287.816 60H285.816C285.816 64.0475 287.177 67.4465 289.919 70.1165L291.314 68.6835ZM287.816 60C287.816 56.3749 288.992 53.5553 291.294 51.4355L289.939 49.9645C287.174 52.5114 285.816 55.8918 285.816 60H287.816ZM291.294 51.4355C293.626 49.2872 296.511 48.2 300.016 48.2V46.2C296.055 46.2 292.673 47.4461 289.939 49.9645L291.294 51.4355ZM300.016 48.2C303.522 48.2 306.406 49.2872 308.739 51.4355L310.094 49.9645C307.36 47.4461 303.978 46.2 300.016 46.2V48.2ZM308.739 51.4355C311.04 53.5553 312.216 56.3749 312.216 60H314.216C314.216 55.8918 312.859 52.5114 310.094 49.9645L308.739 51.4355ZM312.216 60C312.216 63.5525 311.043 66.4202 308.719 68.6835L310.114 70.1165C312.856 67.4465 314.216 64.0475 314.216 60H312.216ZM308.729 68.674C306.395 70.885 303.513 72 300.016 72V74C303.986 74 307.371 72.715 310.104 70.126L308.729 68.674ZM339.534 71L339.179 71.9347L339.187 71.9377L339.195 71.9406L339.534 71ZM327.134 63.4L326.449 64.1278L326.456 64.1343L327.134 63.4ZM319.034 51.8L318.117 52.1972L318.117 52.1972L319.034 51.8ZM319.034 22.2L318.117 21.8028L318.117 21.8028L319.034 22.2ZM327.234 10.6L326.556 9.86573L326.556 9.86573L327.234 10.6ZM339.734 3.1L340.074 4.04058L340.081 4.0379L339.734 3.1ZM374.234 3.89999L373.838 4.81797L373.842 4.81972L374.234 3.89999ZM387.734 13.9L388.395 14.6504L389.118 14.0141L388.509 13.2681L387.734 13.9ZM372.634 27.2L371.879 27.8557L372.54 28.616L373.295 27.9504L372.634 27.2ZM365.434 21.5L364.969 22.3849L364.982 22.3922L364.996 22.399L365.434 21.5ZM349.834 20.7L349.483 19.7636L349.473 19.7674L349.834 20.7ZM344.534 24.2L345.257 24.8912L345.257 24.8912L344.534 24.2ZM341.134 29.7L342.071 30.0511L342.071 30.0511L341.134 29.7ZM341.134 44.2L340.195 44.5418L340.198 44.5511L341.134 44.2ZM344.534 49.7L345.257 49.0088L345.257 49.0088L344.534 49.7ZM349.734 53.3L349.337 54.2176L349.355 54.2254L349.373 54.2326L349.734 53.3ZM364.434 53.2L364.758 54.1462L364.769 54.1424L364.78 54.1383L364.434 53.2ZM372.534 48.5L373.31 47.8683L372.696 47.1154L371.926 47.7067L372.534 48.5ZM385.734 64.7L386.292 65.53L387.202 64.9185L386.51 64.0683L385.734 64.7ZM371.134 71.3L371.404 72.2628L371.404 72.2628L371.134 71.3ZM365.234 61.7H364.234V62.5643L365.09 62.6895L365.234 61.7ZM365.234 35.1V34.1H364.234V35.1H365.234ZM385.734 35.1H386.734V34.1H385.734V35.1ZM385.734 64.7L385.59 65.6895L386.734 65.857V64.7H385.734ZM355.234 72.6C349.671 72.6 344.554 71.7493 339.874 70.0594L339.195 71.9406C344.115 73.7173 349.465 74.6 355.234 74.6V72.6ZM339.89 70.0653C335.27 68.3084 331.248 65.841 327.813 62.6657L326.456 64.1343C330.088 67.4923 334.332 70.0916 339.179 71.9347L339.89 70.0653ZM327.82 62.6722C324.455 59.5009 321.833 55.7474 319.952 51.4028L318.117 52.1972C320.103 56.7859 322.881 60.7658 326.449 64.1278L327.82 62.6722ZM319.952 51.4028C318.079 47.0746 317.134 42.2784 317.134 37H315.134C315.134 42.5216 316.123 47.5921 318.117 52.1972L319.952 51.4028ZM317.134 37C317.134 31.7216 318.079 26.9254 319.952 22.5972L318.117 21.8028C316.123 26.4079 315.134 31.4784 315.134 37H317.134ZM319.952 22.5972C321.831 18.2568 324.483 14.5053 327.913 11.3343L326.556 9.86573C322.919 13.228 320.105 17.2099 318.117 21.8028L319.952 22.5972ZM327.913 11.3343C331.343 8.16376 335.392 5.73128 340.074 4.04055L339.395 2.15944C334.477 3.93538 330.193 6.5029 326.556 9.86573L327.913 11.3343ZM340.081 4.0379C344.825 2.28352 350.039 1.4 355.734 1.4V-0.600002C349.83 -0.600002 344.377 0.316476 339.387 2.1621L340.081 4.0379ZM355.734 1.4C362.555 1.4 368.583 2.54753 373.838 4.81796L374.631 2.98203C369.085 0.585799 362.78 -0.600002 355.734 -0.600002V1.4ZM373.842 4.81972C379.169 7.09362 383.535 10.332 386.959 14.5319L388.509 13.2681C384.867 8.80136 380.233 5.37304 374.627 2.98027L373.842 4.81972ZM387.073 13.1496L371.973 26.4496L373.295 27.9504L388.395 14.6504L387.073 13.1496ZM373.389 26.5443C371.115 23.9255 368.611 21.9353 365.872 20.601L364.996 22.399C367.458 23.598 369.754 25.4079 371.879 27.8557L373.389 26.5443ZM365.9 20.6151C363.21 19.1992 360.214 18.5 356.934 18.5V20.5C359.921 20.5 362.592 21.1341 364.969 22.3849L365.9 20.6151ZM356.934 18.5C354.231 18.5 351.744 18.9161 349.483 19.7637L350.186 21.6363C352.192 20.8839 354.438 20.5 356.934 20.5V18.5ZM349.473 19.7674C347.276 20.618 345.384 21.8647 343.812 23.5088L345.257 24.8912C346.618 23.4686 348.259 22.382 350.195 21.6326L349.473 19.7674ZM343.812 23.5088C342.245 25.1469 341.042 27.0984 340.198 29.3489L342.071 30.0511C342.827 28.035 343.891 26.3198 345.257 24.8912L343.812 23.5088ZM340.198 29.3489C339.348 31.6144 338.934 34.1701 338.934 37H340.934C340.934 34.3633 341.32 32.0522 342.071 30.0511L340.198 29.3489ZM338.934 37C338.934 39.7037 339.351 42.2208 340.195 44.5417L342.074 43.8583C341.318 41.7792 340.934 39.4963 340.934 37H338.934ZM340.198 44.5511C341.042 46.8016 342.245 48.7531 343.812 50.3912L345.257 49.0088C343.891 47.5802 342.827 45.865 342.071 43.8489L340.198 44.5511ZM343.812 50.3912C345.373 52.0236 347.218 53.2993 349.337 54.2176L350.132 52.3824C348.251 51.5673 346.629 50.4431 345.257 49.0088L343.812 50.3912ZM349.373 54.2326C351.57 55.083 353.995 55.5 356.634 55.5V53.5C354.207 53.5 352.032 53.117 350.095 52.3674L349.373 54.2326ZM356.634 55.5C359.412 55.5 362.121 55.0483 364.758 54.1462L364.111 52.2538C361.681 53.085 359.19 53.5 356.634 53.5V55.5ZM364.78 54.1383C367.434 53.1607 370.222 51.5353 373.143 49.2933L371.926 47.7067C369.114 49.8647 366.502 51.3727 364.089 52.2617L364.78 54.1383ZM371.759 49.1317L384.959 65.3317L386.51 64.0683L373.31 47.8683L371.759 49.1317ZM385.177 63.8699C381.007 66.6715 376.239 68.8295 370.864 70.3372L371.404 72.2628C376.963 70.7038 381.928 68.4618 386.292 65.53L385.177 63.8699ZM370.864 70.3372C365.476 71.8484 360.267 72.6 355.234 72.6V74.6C360.468 74.6 365.859 73.8182 371.404 72.2628L370.864 70.3372ZM366.234 61.7V35.1H364.234V61.7H366.234ZM365.234 36.1H385.734V34.1H365.234V36.1ZM384.734 35.1V64.7H386.734V35.1H384.734ZM385.879 63.7105L365.379 60.7105L365.09 62.6895L385.59 65.6895L385.879 63.7105Z" fill="#FEFEFF"/>
</svg>
